<svg id="visual" viewBox="0 0 900 600" width="900" height="600" xmlns="http://www.w3.org/2000/svg" xmlns:xlink="http://www.w3.org/1999/xlink" version="1.1"><rect x="0" y="0" width="900" height="600" fill="#001220"></rect><path d="M0 405L21.5 395.3C43 385.7 86 366.3 128.8 369.7C171.7 373 214.3 399 257.2 406.3C300 413.7 343 402.3 385.8 401.3C428.7 400.3 471.3 409.7 514.2 411.7C557 413.7 600 408.3 642.8 400.3C685.7 392.3 728.3 381.7 771.2 382.3C814 383 857 395 878.5 401L900 407L900 601L878.5 601C857 601 814 601 771.2 601C728.3 601 685.7 601 642.8 601C600 601 557 601 514.2 601C471.3 601 428.7 601 385.8 601C343 601 300 601 257.2 601C214.3 601 171.7 601 128.8 601C86 601 43 601 21.5 601L0 601Z" fill="#fa7268"></path><path d="M0 424L21.5 419.7C43 415.3 86 406.7 128.8 412.2C171.7 417.7 214.3 437.3 257.2 440.8C300 444.3 343 431.7 385.8 425.5C428.7 419.3 471.3 419.7 514.2 420C557 420.3 600 420.7 642.8 427.8C685.7 435 728.3 449 771.2 456.7C814 464.3 857 465.7 878.5 466.3L900 467L900 601L878.5 601C857 601 814 601 771.2 601C728.3 601 685.7 601 642.8 601C600 601 557 601 514.2 601C471.3 601 428.7 601 385.8 601C343 601 300 601 257.2 601C214.3 601 171.7 601 128.8 601C86 601 43 601 21.5 601L0 601Z" fill="#ef5f67"></path><path d="M0 442L21.5 443.2C43 444.3 86 446.7 128.8 448C171.7 449.3 214.3 449.7 257.2 456.8C300 464 343 478 385.8 476.5C428.7 475 471.3 458 514.2 453.5C557 449 600 457 642.8 457C685.7 457 728.3 449 771.2 452.7C814 456.3 857 471.7 878.5 479.3L900 487L900 601L878.5 601C857 601 814 601 771.2 601C728.3 601 685.7 601 642.8 601C600 601 557 601 514.2 601C471.3 601 428.7 601 385.8 601C343 601 300 601 257.2 601C214.3 601 171.7 601 128.8 601C86 601 43 601 21.5 601L0 601Z" fill="#e34c67"></path><path d="M0 528L21.5 525.2C43 522.3 86 516.7 128.8 512.2C171.7 507.7 214.3 504.3 257.2 506.3C300 508.3 343 515.7 385.8 520.3C428.7 525 471.3 527 514.2 527.2C557 527.3 600 525.7 642.8 526.8C685.7 528 728.3 532 771.2 525.8C814 519.7 857 503.3 878.5 495.2L900 487L900 601L878.5 601C857 601 814 601 771.2 601C728.3 601 685.7 601 642.8 601C600 601 557 601 514.2 601C471.3 601 428.7 601 385.8 601C343 601 300 601 257.2 601C214.3 601 171.7 601 128.8 601C86 601 43 601 21.5 601L0 601Z" fill="#d53867"></path><path d="M0 563L21.5 563.3C43 563.7 86 564.3 128.8 562.8C171.7 561.3 214.3 557.7 257.2 551.3C300 545 343 536 385.8 532.8C428.7 529.7 471.3 532.3 514.2 532.3C557 532.3 600 529.7 642.8 535.2C685.7 540.7 728.3 554.3 771.2 559.3C814 564.3 857 560.7 878.5 558.8L900 557L900 601L878.5 601C857 601 814 601 771.2 601C728.3 601 685.7 601 642.8 601C600 601 557 601 514.2 601C471.3 601 428.7 601 385.8 601C343 601 300 601 257.2 601C214.3 601 171.7 601 128.8 601C86 601 43 601 21.5 601L0 601Z" fill="#c62368"></path></svg>